<?xml version="1.0" encoding="UTF-8"?>
<svg width="25px" height="24px" viewBox="0 0 25 24" version="1.1" xmlns="http://www.w3.org/2000/svg" xmlns:xlink="http://www.w3.org/1999/xlink">
    <!-- Generator: Sketch 52.3 (67297) - http://www.bohemiancoding.com/sketch -->
        <g id="round-pie-chart" fill="inherit">
            <path d="M11.6843386,12.4636093 L7.15744005,2.77813356 C7.03985827,2.53330353 6.7557023,2.42557832 6.51074026,2.54309673 C2.43457185,4.44297772 -0.122831883,8.57570851 0.00454837998,13.0707877 C0.131928643,17.565867 2.92449594,21.5516998 7.10844764,23.2067507 C8.44104116,23.7355836 9.84222405,24 11.2630039,24 C14.2711378,24 17.102899,22.8248159 19.2291696,20.6996913 C19.4251392,20.5038273 19.4251392,20.200238 19.2291696,20.004374 L11.6843386,12.4636093 Z M11.2728024,23.0304731 C9.96960431,23.0304731 8.69580169,22.7856431 7.48078995,22.3057762 C3.65938207,20.7878301 1.11177682,17.1545525 0.994195036,13.0512013 C0.876613255,9.10454137 3.02248076,5.47126382 6.49114329,3.64972844 L10.8318707,12.9630625 C10.8514677,13.0120285 10.8906616,13.0609945 10.9298555,13.1001674 L18.200329,20.3667225 C16.2994235,22.0805326 13.8596016,23.0304731 11.2728024,23.0304731 Z" id="Shape" fill-rule="nonzero"></path>
            <path d="M24.2705804,9.83905357 C23.6345537,6.22779224 21.2665775,3.14500818 17.9396686,1.58893623 C17.695043,1.47149684 17.4014922,1.57914962 17.2938569,1.82381502 L12.7438199,11.5810712 C12.6557546,11.7670169 12.6948947,11.9921091 12.8416701,12.1291217 L20.4544203,19.743109 C20.5424855,19.8311886 20.6696909,19.8899083 20.7968962,19.8899083 C20.9241016,19.8899083 21.0513069,19.8409752 21.1393721,19.743109 C23.732404,17.1594424 24.9066071,13.4503149 24.2705804,9.83905357 Z M20.7871112,18.7057277 L13.7712476,11.688724 L17.9592387,2.69482385 C20.7675411,4.17260287 22.7441164,6.86392229 23.2920778,10.005426 C23.8596093,13.1469298 22.9202469,16.3667265 20.7871112,18.7057277 Z" id="Shape" fill-rule="nonzero"></path>
            <path d="M16.8073394,1.00801892 C13.9204893,-0.336006307 10.5932722,-0.336006307 7.70642202,1.00801892 L12.2568807,10.7889908 L16.8073394,1.00801892 Z" id="Path"></path>
        </g>
</svg>