<?xml version="1.0" encoding="utf-8"?>
<!-- Generator: Adobe Illustrator 23.0.1, SVG Export Plug-In . SVG Version: 6.00 Build 0)  -->
<svg version="1.1" id="Layer_1" xmlns="http://www.w3.org/2000/svg" xmlns:xlink="http://www.w3.org/1999/xlink" x="0px" y="0px"
	 viewBox="0 0 16 16" style="enable-background:new 0 0 16 16;" xml:space="preserve">
<path id="close" fill="inherit" d="M9.3,8l5-5c0.3-0.3,0.3-0.9,0-1.2c-0.3-0.3-0.9-0.3-1.2,0l-5,5l-5-5c-0.3-0.3-0.9-0.3-1.2,0
	C1.6,1.9,1.5,2.1,1.5,2.4S1.6,2.8,1.8,3l5,5l-5,5c-0.3,0.3-0.3,0.9,0,1.2c0.3,0.3,0.9,0.3,1.2,0l5-5l5,5c0.2,0.2,0.4,0.3,0.6,0.3
	c0.2,0,0.5-0.1,0.6-0.3c0.3-0.3,0.3-0.9,0-1.2L9.3,8z"/>
</svg>
