<?xml version="1.0" encoding="UTF-8"?>
<svg width="20px" height="17px" viewBox="0 0 20 17" version="1.1" xmlns="http://www.w3.org/2000/svg" xmlns:xlink="http://www.w3.org/1999/xlink">
    <!-- Generator: Sketch 52.3 (67297) - http://www.bohemiancoding.com/sketch -->
    <title>Icon/export</title>
    <desc>Created with Sketch.</desc>
    <g id="export" stroke="none" stroke-width="1" fill="none" fill-rule="evenodd">
        <g id="share" transform="translate(2.000000, 0.000000)" fill="inherit">
            <path d="M15.5833333,0 L11.4291992,0 C11.199056,0 11.0125325,0.186523417 11.0125325,0.416666667 C11.0125325,0.646809917 11.199056,0.833333333 11.4291992,0.833333333 L14.5838216,0.833333333 L6.47916667,9.01578775 C6.36995442,9.12044271 6.32617188,9.27620442 6.36474608,9.42268879 C6.40332033,9.56901042 6.51822917,9.68294271 6.66487629,9.72021483 C6.81168621,9.757487 6.96695963,9.71240233 7.07080079,9.60221354 L15.1666667,1.42919921 L15.1666667,4.57080079 C15.1666667,4.800944 15.3531901,4.98746746 15.5833333,4.98746746 C15.8134766,4.98746746 16,4.800944 16,4.57080079 L16,0.416666667 C16,0.186523417 15.8134766,0 15.5833333,0 Z" id="Path"></path>
            <path d="M13.5056966,8.9371745 C13.2755534,8.9371745 13.08903,9.12369792 13.08903,9.35384117 L13.08903,13.9166667 C13.0882162,14.6067708 12.5291341,15.1658529 11.83903,15.1666667 L2.08333333,15.1666667 C1.39322917,15.1658529 0.834147125,14.6067708 0.833333333,13.9166667 L0.833333333,4.16097004 C0.834147125,3.47086588 1.39322917,2.91178383 2.08333333,2.91097004 L6.64615883,2.91097004 C6.87630208,2.91097004 7.0628255,2.72444662 7.0628255,2.49430337 C7.0628255,2.26416017 6.87630208,2.07763671 6.64615883,2.07763671 L2.08333333,2.07763671 C0.93326825,2.07893879 0.00130208333,3.01090496 2.84217094e-14,4.16097004 L2.84217094e-14,13.9166667 C0.00130208333,15.0667318 0.93326825,15.9986979 2.08333333,16 L11.83903,16 C12.989095,15.9986979 13.9210612,15.0667318 13.9223633,13.9166667 L13.9223633,9.35384117 C13.9223633,9.12369792 13.7358398,8.9371745 13.5056966,8.9371745 Z" id="Path"></path>
        </g>
    </g>
</svg>