<?xml version="1.0" encoding="UTF-8"?>
<svg width="20px" height="17px" viewBox="0 0 20 17" version="1.1" xmlns="http://www.w3.org/2000/svg" xmlns:xlink="http://www.w3.org/1999/xlink">
        <g id="Icon-1" fill="#4963FE" fill-rule="nonzero">
            <g id="sharing-connections">
                <path d="M17.5492851,0 C16.1980454,0 15.0986028,1.09758564 15.0986028,2.44668842 C15.0986028,3.19050571 15.4331774,3.85735726 15.9596144,4.30649266 L13.6568078,8.67455139 C13.4537362,8.62 13.2405993,8.59044046 13.0205343,8.59044046 C12.4946528,8.59044046 12.007268,8.75725938 11.6076935,9.03983687 L9.85524533,7.4617292 C10.0555718,7.10734095 10.1705389,6.69866232 10.1705389,6.26358891 C10.1705389,4.91445351 9.07109629,3.81690049 7.71975863,3.81690049 C6.36851901,3.81690049 5.26907636,4.91448613 5.26907636,6.26358891 C5.26907636,6.91484502 5.5257426,7.50694943 5.94280075,7.9458075 L3.33228214,11.8385644 C3.05849173,11.7327896 2.76140072,11.6741272 2.45064959,11.6741272 C1.09934461,11.6741272 0,12.7717129 0,14.1208157 C0,15.4699184 1.09934461,16.5675041 2.45068227,16.5675041 C3.80192189,16.5675041 4.90136454,15.4699184 4.90136454,14.1208157 C4.90136454,13.4695595 4.64469829,12.8773899 4.22764015,12.4385318 L6.83815876,8.54577488 C7.11194916,8.65154976 7.40904018,8.71021207 7.71979131,8.71021207 C8.24577084,8.71021207 8.73305763,8.54339315 9.13273018,8.26078303 L10.8850803,9.8388907 C10.6848518,10.193279 10.569852,10.601925 10.569852,11.037031 C10.569852,12.3861338 11.6692947,13.4837194 13.0205343,13.4837194 C14.3718719,13.4837194 15.4713146,12.3861338 15.4713146,11.037031 C15.4713146,10.2932137 15.1366419,9.62636215 14.6103029,9.17725938 L16.9130443,4.80923328 C17.1161158,4.86378467 17.3292527,4.89337684 17.5493177,4.89337684 C18.9006554,4.89337684 20,3.79579119 20,2.44668842 C19.9999673,1.09758564 18.9006227,0 17.5492851,0 Z M2.45068227,15.4909951 C1.6939188,15.4909951 1.07826621,14.8763458 1.07826621,14.1208157 C1.07826621,13.3652855 1.6939188,12.7506362 2.45068227,12.7506362 C3.20744574,12.7506362 3.82309833,13.3652855 3.82309833,14.1208157 C3.82309833,14.8763458 3.20744574,15.4909951 2.45068227,15.4909951 Z M7.71975863,7.63373573 C6.96299516,7.63373573 6.34734257,7.01908646 6.34734257,6.26362153 C6.34734257,5.50809135 6.96299516,4.89344209 7.71975863,4.89344209 C8.4765221,4.89344209 9.09227273,5.50809135 9.09227273,6.26362153 C9.09227273,7.01908646 8.4765221,7.63373573 7.71975863,7.63373573 Z M11.6481509,11.0370636 C11.6481509,10.2816313 12.2638035,9.66698206 13.020567,9.66698206 C13.7773304,9.66698206 14.3930811,10.2816313 14.3930811,11.0370636 C14.3930811,11.7925938 13.7773304,12.4072431 13.020567,12.4072431 C12.2638035,12.4072431 11.6481509,11.7925938 11.6481509,11.0370636 Z M17.5492851,3.81686786 C16.7925216,3.81686786 16.176869,3.2022186 16.176869,2.44668842 C16.176869,1.69115824 16.7925216,1.07650897 17.5492851,1.07650897 C18.3060485,1.07650897 18.9217011,1.69115824 18.9217011,2.44668842 C18.9217011,3.20225122 18.3060485,3.81686786 17.5492851,3.81686786 Z" id="Shape"></path>
            </g>
        </g>
</svg>