<?xml version="1.0" encoding="UTF-8"?>
<svg width="60px" height="60px" viewBox="0 0 60 60" version="1.1" xmlns="http://www.w3.org/2000/svg" xmlns:xlink="http://www.w3.org/1999/xlink">
    <!-- Generator: Sketch 52.3 (67297) - http://www.bohemiancoding.com/sketch -->
    <title>Icon/graph circle</title>
    <desc>Created with Sketch.</desc>
    <g id="Icon/graph-circle" stroke="none" stroke-width="1" fill="none" fill-rule="evenodd">
        <g id="maximize">
            <circle id="Oval" fill="#4963FE" fill-rule="nonzero" cx="30" cy="30" r="30"></circle>
            <g id="expand" transform="translate(20.000000, 20.000000)" fill="#FDFFFC">
                <g id="Path">
                    <path d="M19.1921094,-1.27009514e-13 L13.0640234,-1.27009514e-13 C12.6178125,-1.27009514e-13 12.2561328,0.36171875 12.2561328,0.807890625 C12.2561328,1.2540625 12.6178125,1.61578125 13.0640234,1.61578125 L18.3842188,1.61578125 L18.3842188,6.93597656 C18.3842188,7.38214844 18.7458984,7.74386719 19.1921094,7.74386719 C19.6383203,7.74386719 20,7.38214844 20,6.93597656 L20,0.807890625 C20,0.36171875 19.6383203,-1.27009514e-13 19.1921094,-1.27009514e-13 Z"></path>
                    <path d="M6.93597656,18.3842187 L1.61582031,18.3842187 L1.61582031,13.0640234 C1.61582031,12.6178125 1.25410156,12.2561328 0.807929688,12.2561328 C0.36171875,12.2561328 3.28626015e-13,12.6178125 3.28626015e-13,13.0640234 L3.28626015e-13,19.1921094 C3.28626015e-13,19.6383203 0.36171875,20 0.807890625,20 L6.93597656,20 C7.38214844,20 7.74386719,19.6383203 7.74386719,19.1921094 C7.74390625,18.7458984 7.38214844,18.3842187 6.93597656,18.3842187 Z"></path>
                    <path d="M19.7633984,0.236640625 C19.4478906,-0.0788671875 18.9363672,-0.0788671875 18.6208594,0.236640625 L11.4714453,7.38605469 C11.1559766,7.7015625 11.1559766,8.21308594 11.4714453,8.52859375 C11.6291797,8.68632812 11.8359766,8.76523437 12.0427344,8.76523437 C12.2494531,8.76523437 12.45625,8.68636719 12.6140234,8.52859375 L19.7633984,1.37917969 C20.0788672,1.06367187 20.0788672,0.552148437 19.7633984,0.236640625 Z"></path>
                    <path d="M8.52859375,11.4714453 C8.213125,11.1559375 7.7015625,11.1559375 7.38605469,11.4714453 L0.236640625,18.6208203 C-0.0788671875,18.9363281 -0.0788671875,19.4478516 0.236640625,19.7633594 C0.394375,19.9211719 0.601171875,20 0.807890625,20 C1.01464844,20 1.22140625,19.9211328 1.37917969,19.7633594 L8.52859375,12.6139453 C8.84410156,12.2984766 8.84410156,11.7869531 8.52859375,11.4714453 Z"></path>
                </g>
            </g>
        </g>
    </g>
</svg>