<?xml version="1.0" encoding="UTF-8"?>
<svg width="60px" height="60px" viewBox="0 0 60 60" version="1.1" xmlns="http://www.w3.org/2000/svg" xmlns:xlink="http://www.w3.org/1999/xlink">
    <!-- Generator: Sketch 52.3 (67297) - http://www.bohemiancoding.com/sketch -->
    <title>Icon/graph circle Copy</title>
    <desc>Created with Sketch.</desc>
    <g id="Icon/graph-circle-Copy" stroke="none" stroke-width="1" fill="none" fill-rule="evenodd">
        <g id="maximize">
            <circle id="Oval" fill="#4963FE" fill-rule="nonzero" cx="30" cy="30" r="30"></circle>
            <g id="expand" transform="translate(20.000000, 20.000000)" fill="#FDFFFC">
                <g id="Path">
                    <path d="M19.1921094,-1.27009514e-13 L13.0640234,-1.27009514e-13 C12.6178125,-1.27009514e-13 12.2561328,0.36171875 12.2561328,0.807890625 C12.2561328,1.2540625 12.6178125,1.61578125 13.0640234,1.61578125 L18.3842188,1.61578125 L18.3842188,6.93597656 C18.3842188,7.38214844 18.7458984,7.74386719 19.1921094,7.74386719 C19.6383203,7.74386719 20,7.38214844 20,6.93597656 L20,0.807890625 C20,0.36171875 19.6383203,-1.27009514e-13 19.1921094,-1.27009514e-13 Z"></path>
                    <path d="M6.93597656,18.3842187 L1.61582031,18.3842187 L1.61582031,13.0640234 C1.61582031,12.6178125 1.25410156,12.2561328 0.807929688,12.2561328 C0.36171875,12.2561328 3.28626015e-13,12.6178125 3.28626015e-13,13.0640234 L3.28626015e-13,19.1921094 C3.28626015e-13,19.6383203 0.36171875,20 0.807890625,20 L6.93597656,20 C7.38214844,20 7.74386719,19.6383203 7.74386719,19.1921094 C7.74390625,18.7458984 7.38214844,18.3842187 6.93597656,18.3842187 Z"></path>
                    <path d="M19.7633984,0.236640625 C19.4478906,-0.0788671875 18.9363672,-0.0788671875 18.6208594,0.236640625 L11.4714453,7.38605469 C11.1559766,7.7015625 11.1559766,8.21308594 11.4714453,8.52859375 C11.6291797,8.68632812 11.8359766,8.76523437 12.0427344,8.76523437 C12.2494531,8.76523437 12.45625,8.68636719 12.6140234,8.52859375 L19.7633984,1.37917969 C20.0788672,1.06367187 20.0788672,0.552148437 19.7633984,0.236640625 Z"></path>
                    <path d="M8.52859375,11.4714453 C8.213125,11.1559375 7.7015625,11.1559375 7.38605469,11.4714453 L0.236640625,18.6208203 C-0.0788671875,18.9363281 -0.0788671875,19.4478516 0.236640625,19.7633594 C0.394375,19.9211719 0.601171875,20 0.807890625,20 C1.01464844,20 1.22140625,19.9211328 1.37917969,19.7633594 L8.52859375,12.6139453 C8.84410156,12.2984766 8.84410156,11.7869531 8.52859375,11.4714453 Z"></path>
                </g>
            </g>
        </g>
        <g id="maximize-copy">
            <circle id="Oval" fill="#4963FE" fill-rule="nonzero" cx="30" cy="30" r="30"></circle>
            <g id="minimize" transform="translate(20.000000, 20.000000)" fill="#FDFFFC">
                <path d="M18.0342634,6.78865327 L12.9674479,6.78865327 L12.9674479,1.7218006 C12.9674479,1.2968378 12.6229539,0.952380952 12.1980283,0.952380952 C11.7730655,0.952380952 11.4285714,1.2968378 11.4285714,1.7218006 L11.4285714,7.55807292 C11.4285714,7.98303571 11.7730655,8.32749256 12.1979911,8.32749256 L18.0342634,8.32749256 C18.459189,8.32749256 18.803683,7.98303571 18.803683,7.55807292 C18.8037202,7.13311012 18.459189,6.78865327 18.0342634,6.78865327 Z" id="Path"></path>
                <path d="M19.5510324,0.225362723 C19.2505859,-0.0751209077 18.7633836,-0.0751209077 18.4628999,0.225362723 L11.6539342,7.03429129 C11.3534505,7.33477493 11.3534505,7.8219401 11.6539342,8.12242374 C11.8041574,8.27272135 12.0011068,8.34779576 12.1979818,8.34779576 C12.394894,8.34779576 12.5918062,8.27268415 12.7420666,8.12242374 L19.5510324,1.31345796 C19.851516,1.01301153 19.851516,0.525846354 19.5510324,0.225362723 Z" id="Path"></path>
                <path d="M7.55807292,11.4285714 L1.7218006,11.4285714 C1.2968378,11.4285714 0.952380952,11.7730655 0.952380952,12.1979911 C0.952380952,12.6229167 1.2968378,12.9674107 1.7218006,12.9674107 L6.78865327,12.9674107 L6.78865327,18.0342634 C6.78865327,18.459189 7.13311012,18.803683 7.55807292,18.803683 C7.98303571,18.803683 8.32749256,18.459189 8.32749256,18.0342634 L8.32749256,12.1979911 C8.32749256,11.7730655 7.98303571,11.4285714 7.55807292,11.4285714 Z" id="Path"></path>
                <path d="M19.7746652,0.225372024 C19.4741815,-0.0751116071 18.9870164,-0.0751116071 18.6865327,0.225372024 L11.877567,7.0343378 C11.5771205,7.33482143 11.5771205,7.82198661 11.877567,8.12247024 C12.0277902,8.27269345 12.2247396,8.34784226 12.4216518,8.34784226 C12.6185268,8.34784226 12.8154762,8.27273065 12.9657366,8.12247024 L19.7746652,1.31350446 C20.0751116,1.01302083 20.0751116,0.525855655 19.7746652,0.225372024 Z" id="Path"></path>
                <path d="M8.12246094,11.6539342 C7.82201451,11.3534505 7.33481213,11.3534505 7.0343285,11.6539342 L0.225362723,18.4628627 C-0.0751209077,18.7633464 -0.0751209077,19.2505115 0.225362723,19.5509952 C0.375585938,19.7012928 0.572535342,19.7763672 0.769410342,19.7763672 C0.966322545,19.7763672 1.16323475,19.7012556 1.31349516,19.5509952 L8.12246094,12.7420294 C8.42294457,12.441583 8.42294457,11.9544178 8.12246094,11.6539342 Z" id="Path"></path>
            </g>
        </g>
    </g>
</svg>