<?xml version="1.0" encoding="UTF-8"?>
<svg width="16px" height="16px" viewBox="0 0 16 16" version="1.1" xmlns="http://www.w3.org/2000/svg" xmlns:xlink="http://www.w3.org/1999/xlink">
    <!-- Generator: Sketch 52.3 (67297) - http://www.bohemiancoding.com/sketch -->
    <title>grid</title>
    <desc>Created with Sketch.</desc>
    <g id="grid" stroke="none" stroke-width="1" fill="none" fill-rule="evenodd">
        <g fill="#575757" id="Path">
            <path d="M6.76111765,0 L0.614647059,0 C0.275176471,0 0,0.275176471 0,0.614647059 L0,6.76111765 C0,7.10058824 0.275176471,7.37576471 0.614647059,7.37576471 L6.76111765,7.37576471 C7.10058824,7.37576471 7.37576471,7.10058824 7.37576471,6.76111765 L7.37576471,0.614647059 C7.37576471,0.275176471 7.10058824,0 6.76111765,0 Z"></path>
            <path d="M15.3661176,0 L9.21964706,0 C8.88017647,0 8.605,0.275176471 8.605,0.614647059 L8.605,6.76111765 C8.605,7.10058824 8.88017647,7.37576471 9.21964706,7.37576471 L15.3661176,7.37576471 C15.7055882,7.37576471 15.9807647,7.10058824 15.9807647,6.76111765 L15.9807647,0.614647059 C15.9807647,0.275176471 15.7055882,0 15.3661176,0 Z"></path>
            <path d="M6.76111765,8.60505882 L0.614647059,8.60505882 C0.275176471,8.60505882 0,8.88023529 0,9.21970588 L0,15.3661765 C0,15.7056471 0.275176471,15.9808235 0.614647059,15.9808235 L6.76111765,15.9808235 C7.10058824,15.9808235 7.37576471,15.7056471 7.37576471,15.3661765 L7.37576471,9.21970588 C7.37576471,8.88023529 7.10058824,8.60505882 6.76111765,8.60505882 Z"></path>
            <path d="M15.3661176,8.60505882 L9.21964706,8.60505882 C8.88017647,8.60505882 8.605,8.88023529 8.605,9.21970588 L8.605,15.3661765 C8.605,15.7056471 8.88017647,15.9808235 9.21964706,15.9808235 L15.3661176,15.9808235 C15.7055882,15.9808235 15.9807647,15.7056471 15.9807647,15.3661765 L15.9807647,9.21970588 C15.9807647,8.88023529 15.7055882,8.60505882 15.3661176,8.60505882 Z"></path>
        </g>
    </g>
</svg>