<?xml version="1.0" encoding="UTF-8"?>
<svg width="27px" height="20px" viewBox="0 0 27 20" version="1.1" xmlns="http://www.w3.org/2000/svg" xmlns:xlink="http://www.w3.org/1999/xlink">
    <!-- Generator: Sketch 52.3 (67297) - http://www.bohemiancoding.com/sketch -->
        <g id="logout">
            <path d="M0,3.37165775 L0,16.644385 C0,18.473262 1.49197861,19.9652406 3.32085561,19.9652406 L14.0481283,19.9652406 C15.8770053,19.9652406 17.368984,18.473262 17.368984,16.644385 L17.368984,14.4946524 C17.368984,14.131016 17.0748663,13.8368984 16.7112299,13.8368984 C16.3475936,13.8368984 16.0534759,14.131016 16.0534759,14.4946524 L16.0534759,16.644385 C16.0534759,17.7513369 15.1497326,18.6550802 14.0427807,18.6550802 L3.32085561,18.6550802 C2.21390374,18.6550802 1.31016043,17.7513369 1.31016043,16.644385 L1.31016043,3.37165775 C1.31016043,2.26470588 2.21390374,1.36096257 3.32085561,1.36096257 L14.0481283,1.36096257 C15.1550802,1.36096257 16.0588235,2.26470588 16.0588235,3.37165775 L16.0588235,5.52139037 C16.0588235,5.88502674 16.3529412,6.17914439 16.7165775,6.17914439 C17.0802139,6.17914439 17.3743316,5.88502674 17.3743316,5.52139037 L17.3743316,3.37165775 C17.3743316,1.54278075 15.8823529,0.050802139 14.0534759,0.050802139 L3.32085561,0.050802139 C1.49197861,0.050802139 0,1.53743316 0,3.37165775 Z" id="Path"></path>
            <path d="M20.6096257,14.9545455 C20.7379679,15.0828877 20.9037433,15.1470588 21.0748663,15.1470588 C21.2459893,15.1470588 21.4117647,15.0828877 21.540107,14.9545455 L26.026738,10.4679144 C26.2834225,10.2112299 26.2834225,9.79946524 26.026738,9.54278075 L21.540107,5.05614973 C21.2834225,4.79946524 20.8716578,4.79946524 20.6149733,5.05614973 C20.3582888,5.31283422 20.3582888,5.72459893 20.6149733,5.98128342 L23.9839572,9.35026738 L11.6898396,9.35026738 C11.3262032,9.35026738 11.0320856,9.64438503 11.0320856,10.0080214 C11.0320856,10.3716578 11.3262032,10.6657754 11.6898396,10.6657754 L23.9786096,10.6657754 L20.6096257,14.0347594 C20.3529412,14.2860963 20.3529412,14.7032086 20.6096257,14.9545455 Z" id="Path"></path>
        </g>
</svg>