<?xml version="1.0" encoding="UTF-8"?>
<svg width="20px" height="17px" viewBox="0 0 20 17" version="1.1" xmlns="http://www.w3.org/2000/svg" xmlns:xlink="http://www.w3.org/1999/xlink">
    <!-- Generator: Sketch 52.3 (67297) - http://www.bohemiancoding.com/sketch -->
    <title>Icon/matrix</title>
    <desc>Created with Sketch.</desc>
    <g id="Icon/matrix" stroke="none" stroke-width="1" fill="none" fill-rule="evenodd">
        <g id="Icon-2" transform="translate(2.000000, 0.000000)" fill="#4963FE" fill-rule="nonzero">
            <g id="option">
                <path d="M6.5,0 L0.5,0 C0.22384375,0 0,0.22384375 0,0.5 L0,6.5 C0,6.77615625 0.22384375,7 0.5,7 L6.5,7 C6.77615625,7 7,6.77615625 7,6.5 L7,0.5 C7,0.22384375 6.77615625,0 6.5,0 Z M6,6 L1,6 L1,1 L6,1 L6,6 Z" id="Shape"></path>
                <path d="M15.5,0 L9.5,0 C9.22384375,0 9,0.22384375 9,0.5 L9,6.5 C9,6.77615625 9.22384375,7 9.5,7 L15.5,7 C15.7761562,7 16,6.77615625 16,6.5 L16,0.5 C16,0.22384375 15.7761562,0 15.5,0 Z M15,6 L10,6 L10,1 L15,1 L15,6 Z" id="Shape"></path>
                <path d="M6.5,9 L0.5,9 C0.22384375,9 0,9.22384375 0,9.5 L0,15.5 C0,15.7761562 0.22384375,16 0.5,16 L6.5,16 C6.77615625,16 7,15.7761562 7,15.5 L7,9.5 C7,9.22384375 6.77615625,9 6.5,9 Z M6,15 L1,15 L1,10 L6,10 L6,15 Z" id="Shape"></path>
                <path d="M15.5,9 L9.5,9 C9.22384375,9 9,9.22384375 9,9.5 L9,15.5 C9,15.7761562 9.22384375,16 9.5,16 L15.5,16 C15.7761562,16 16,15.7761562 16,15.5 L16,9.5 C16,9.22384375 15.7761562,9 15.5,9 Z M15,15 L10,15 L10,10 L15,10 L15,15 Z" id="Shape"></path>
            </g>
        </g>
    </g>
</svg>