<?xml version="1.0" encoding="UTF-8"?>
<svg width="25px" height="16px" viewBox="0 0 25 16" version="1.1" xmlns="http://www.w3.org/2000/svg" xmlns:xlink="http://www.w3.org/1999/xlink">
    <!-- Generator: Sketch 52.3 (67297) - http://www.bohemiancoding.com/sketch -->
    <title>icon/menu</title>
    <desc>Created with Sketch.</desc>
    <g id="icon/menu" stroke="none" stroke-width="1" fill="none" fill-rule="evenodd">
        <g id="menu-2-copy-4" transform="translate(-0.000000, 0.000000)" fill="#25283D">
            <path d="M0.914285714,2.05714286 L23.3142857,2.05714286 C23.8189714,2.05714286 24.2285714,1.64754286 24.2285714,1.14285714 C24.2285714,0.638171429 23.8189714,0.228571429 23.3142857,0.228571429 L0.914285714,0.228571429 C0.4096,0.228571429 0,0.638171429 0,1.14285714 C0,1.64754286 0.4096,2.05714286 0.914285714,2.05714286 Z" id="Path"></path>
            <path d="M0.914285714,8.91428571 L23.3142857,8.91428571 C23.8189714,8.91428571 24.2285714,8.50468571 24.2285714,8 C24.2285714,7.49531429 23.8189714,7.08571429 23.3142857,7.08571429 L0.914285714,7.08571429 C0.4096,7.08571429 0,7.49531429 0,8 C0,8.50468571 0.4096,8.91428571 0.914285714,8.91428571 Z" id="Path"></path>
            <path d="M0.914285714,15.7714286 L23.3142857,15.7714286 C23.8189714,15.7714286 24.2285714,15.3618286 24.2285714,14.8571429 C24.2285714,14.3524571 23.8189714,13.9428571 23.3142857,13.9428571 L0.914285714,13.9428571 C0.4096,13.9428571 0,14.3524571 0,14.8571429 C0,15.3618286 0.4096,15.7714286 0.914285714,15.7714286 Z" id="Path"></path>
        </g>
    </g>
</svg>