<?xml version="1.0" encoding="utf-8"?>
<!-- Generator: Adobe Illustrator 23.0.1, SVG Export Plug-In . SVG Version: 6.00 Build 0)  -->
<svg version="1.1" id="Layer_1" xmlns="http://www.w3.org/2000/svg" xmlns:xlink="http://www.w3.org/1999/xlink" x="0px" y="0px"
	 viewBox="0 0 20 17" style="enable-background:new 0 0 20 17;" xml:space="preserve">
<style type="text/css">
	.st0{fill:#4963FE;}
</style>
<title>Icon/share</title>
<desc>Created with Sketch.</desc>
<g>
	<path id="Shape" class="st0" d="M14.2,11.1c-0.9,0-1.7,0.4-2.3,1.1L7.6,9.7c0.1-0.3,0.2-0.6,0.2-0.9c0-0.3-0.1-0.6-0.2-0.9l4.4-2.4
		c0.5,0.7,1.3,1.1,2.3,1.1c1.6,0,2.9-1.3,2.9-2.9s-1.3-2.9-2.9-2.9s-2.9,1.3-2.9,2.9c0,0.3,0.1,0.7,0.2,0.9L7.1,7.1
		C6.6,6.4,5.8,5.9,4.9,5.9C3.3,5.9,2,7.2,2,8.8s1.3,2.9,2.9,2.9c0.9,0,1.7-0.4,2.3-1.1l4.4,2.5c-0.1,0.3-0.2,0.6-0.2,1
		c0,1.6,1.3,2.9,2.9,2.9s2.9-1.3,2.9-2.9S15.8,11.1,14.2,11.1z M14.2,1.7c1.1,0,2,0.9,2,2s-0.9,2-2,2s-2-0.9-2-2S13.1,1.7,14.2,1.7z
		 M4.9,10.8c-1.1,0-2-0.9-2-2s0.9-2,2-2s2,0.9,2,2S5.9,10.8,4.9,10.8z M14.2,15.9c-1.1,0-2-0.9-2-2s0.9-2,2-2s2,0.9,2,2
		S15.3,15.9,14.2,15.9z"/>
</g>
</svg>
