<?xml version="1.0" encoding="UTF-8"?>
<svg width="20px" height="24px" viewBox="0 0 20 24" version="1.1" xmlns="http://www.w3.org/2000/svg" xmlns:xlink="http://www.w3.org/1999/xlink">
    <!-- Generator: Sketch 52.3 (67297) - http://www.bohemiancoding.com/sketch -->
            <g id="Survey-deep-blue" fill="inherit">
                <path d="M13.0674847,4.19141104 L1.92638037,4.19141104 C0.880981595,4.19141104 0.0319018405,5.0404908 0.0319018405,6.08588957 L0.0319018405,22.0711656 C0.0319018405,23.1165644 0.880981595,23.9656442 1.92638037,23.9656442 L13.0674847,23.9656442 C14.1128834,23.9656442 14.9619632,23.1165644 14.9619632,22.0711656 L14.9619632,6.08588957 C14.9570552,5.0404908 14.1079755,4.19141104 13.0674847,4.19141104 Z M13.6319018,22.0662577 C13.6319018,22.3803681 13.3766871,22.6355828 13.0625767,22.6355828 L1.92147239,22.6355828 C1.60736196,22.6355828 1.35214724,22.3803681 1.35214724,22.0662577 L1.35214724,6.08588957 C1.35214724,5.77177914 1.60736196,5.51656442 1.92147239,5.51656442 L13.0625767,5.51656442 C13.3766871,5.51656442 13.6319018,5.77177914 13.6319018,6.08588957 L13.6319018,22.0662577 Z" id="Shape" fill-rule="nonzero"></path>
                <path d="M17.3276074,0 L6.18650307,0 C5.14110429,0 4.29202454,0.849079755 4.29202454,1.89447853 C4.29202454,2.26257669 4.58650307,2.55705521 4.95460123,2.55705521 C5.32269939,2.55705521 5.61717791,2.26257669 5.61717791,1.89447853 C5.61717791,1.5803681 5.87239264,1.32515337 6.18650307,1.32515337 L17.3276074,1.32515337 C17.6417178,1.32515337 17.8969325,1.5803681 17.8969325,1.89447853 L17.8969325,17.8797546 C17.8969325,18.193865 17.6417178,18.4490798 17.3276074,18.4490798 C16.9595092,18.4490798 16.6650307,18.7435583 16.6650307,19.1116564 C16.6650307,19.4797546 16.9595092,19.7742331 17.3276074,19.7742331 C18.3730061,19.7742331 19.2220859,18.9251534 19.2220859,17.8797546 L19.2220859,1.89447853 C19.2220859,0.849079755 18.3730061,0 17.3276074,0 Z" id="Path"></path>
            </g>
</svg>